<mxfile host="app.diagrams.net" modified="2023-05-26T09:37:41.824Z" agent="Mozilla/5.0 (Windows NT 10.0; Win64; x64) AppleWebKit/537.36 (KHTML, like Gecko) Chrome/113.0.0.0 Safari/537.36" etag="pn0cChaq3IxyRp0tgEiQ" version="21.3.2" type="device">
  <diagram id="C5RBs43oDa-KdzZeNtuy" name="Page-1">
    <mxGraphModel dx="1050" dy="549" grid="1" gridSize="10" guides="1" tooltips="1" connect="1" arrows="1" fold="1" page="1" pageScale="1" pageWidth="827" pageHeight="1169" math="0" shadow="0">
      <root>
        <mxCell id="WIyWlLk6GJQsqaUBKTNV-0" />
        <mxCell id="WIyWlLk6GJQsqaUBKTNV-1" parent="WIyWlLk6GJQsqaUBKTNV-0" />
        <mxCell id="xTPkpAr_v5P52CvgE6M6-41" value="" style="rounded=0;whiteSpace=wrap;html=1;fillColor=#e1d5e7;strokeColor=#9673a6;" parent="WIyWlLk6GJQsqaUBKTNV-1" vertex="1">
          <mxGeometry x="645" y="70" width="175" height="450" as="geometry" />
        </mxCell>
        <mxCell id="xTPkpAr_v5P52CvgE6M6-39" value="" style="rounded=0;whiteSpace=wrap;html=1;fillColor=#dae8fc;strokeColor=#6c8ebf;" parent="WIyWlLk6GJQsqaUBKTNV-1" vertex="1">
          <mxGeometry x="470" y="70" width="175" height="450" as="geometry" />
        </mxCell>
        <mxCell id="xTPkpAr_v5P52CvgE6M6-40" value="ADC" style="text;html=1;align=center;verticalAlign=middle;whiteSpace=wrap;rounded=0;" parent="WIyWlLk6GJQsqaUBKTNV-1" vertex="1">
          <mxGeometry x="530" y="80" width="60" height="30" as="geometry" />
        </mxCell>
        <mxCell id="xTPkpAr_v5P52CvgE6M6-37" value="" style="rounded=0;whiteSpace=wrap;html=1;fillColor=#ffe6cc;strokeColor=#d79b00;" parent="WIyWlLk6GJQsqaUBKTNV-1" vertex="1">
          <mxGeometry x="300" y="70" width="170" height="450" as="geometry" />
        </mxCell>
        <mxCell id="xTPkpAr_v5P52CvgE6M6-38" value="IO expander(s)" style="text;html=1;align=center;verticalAlign=middle;whiteSpace=wrap;rounded=0;" parent="WIyWlLk6GJQsqaUBKTNV-1" vertex="1">
          <mxGeometry x="360" y="80" width="60" height="30" as="geometry" />
        </mxCell>
        <mxCell id="xTPkpAr_v5P52CvgE6M6-35" value="" style="rounded=0;whiteSpace=wrap;html=1;fillColor=#d5e8d4;strokeColor=#82b366;" parent="WIyWlLk6GJQsqaUBKTNV-1" vertex="1">
          <mxGeometry x="110" y="70" width="190" height="450" as="geometry" />
        </mxCell>
        <mxCell id="xTPkpAr_v5P52CvgE6M6-6" value="" style="edgeStyle=orthogonalEdgeStyle;rounded=0;orthogonalLoop=1;jettySize=auto;html=1;fillColor=#a20025;strokeColor=#6F0000;" parent="WIyWlLk6GJQsqaUBKTNV-1" source="WIyWlLk6GJQsqaUBKTNV-7" target="xTPkpAr_v5P52CvgE6M6-5" edge="1">
          <mxGeometry relative="1" as="geometry" />
        </mxCell>
        <mxCell id="IwVZI1Zl-L6Qcaz8j-s4-20" value="" style="edgeStyle=orthogonalEdgeStyle;rounded=0;orthogonalLoop=1;jettySize=auto;html=1;" parent="WIyWlLk6GJQsqaUBKTNV-1" source="WIyWlLk6GJQsqaUBKTNV-7" target="xTPkpAr_v5P52CvgE6M6-3" edge="1">
          <mxGeometry relative="1" as="geometry" />
        </mxCell>
        <mxCell id="WIyWlLk6GJQsqaUBKTNV-7" value="Send to IOE" style="rounded=1;whiteSpace=wrap;html=1;fontSize=12;glass=0;strokeWidth=1;shadow=0;" parent="WIyWlLk6GJQsqaUBKTNV-1" vertex="1">
          <mxGeometry x="160" y="282.5" width="120" height="40" as="geometry" />
        </mxCell>
        <mxCell id="IwVZI1Zl-L6Qcaz8j-s4-2" style="edgeStyle=orthogonalEdgeStyle;rounded=0;orthogonalLoop=1;jettySize=auto;html=1;exitX=0.5;exitY=1;exitDx=0;exitDy=0;entryX=0.5;entryY=0;entryDx=0;entryDy=0;" parent="WIyWlLk6GJQsqaUBKTNV-1" source="xTPkpAr_v5P52CvgE6M6-3" target="IwVZI1Zl-L6Qcaz8j-s4-1" edge="1">
          <mxGeometry relative="1" as="geometry" />
        </mxCell>
        <mxCell id="xTPkpAr_v5P52CvgE6M6-3" value="Decode for USART" style="rounded=1;whiteSpace=wrap;html=1;fontSize=12;glass=0;strokeWidth=1;shadow=0;" parent="WIyWlLk6GJQsqaUBKTNV-1" vertex="1">
          <mxGeometry x="160" y="402.5" width="120" height="40" as="geometry" />
        </mxCell>
        <mxCell id="xTPkpAr_v5P52CvgE6M6-11" value="" style="edgeStyle=orthogonalEdgeStyle;rounded=0;orthogonalLoop=1;jettySize=auto;html=1;" parent="WIyWlLk6GJQsqaUBKTNV-1" source="xTPkpAr_v5P52CvgE6M6-5" target="xTPkpAr_v5P52CvgE6M6-10" edge="1">
          <mxGeometry relative="1" as="geometry" />
        </mxCell>
        <mxCell id="xTPkpAr_v5P52CvgE6M6-5" value="Receive data" style="rounded=1;whiteSpace=wrap;html=1;fontSize=12;glass=0;strokeWidth=1;shadow=0;" parent="WIyWlLk6GJQsqaUBKTNV-1" vertex="1">
          <mxGeometry x="330" y="282.5" width="120" height="40" as="geometry" />
        </mxCell>
        <mxCell id="IwVZI1Zl-L6Qcaz8j-s4-8" value="" style="edgeStyle=orthogonalEdgeStyle;rounded=0;orthogonalLoop=1;jettySize=auto;html=1;" parent="WIyWlLk6GJQsqaUBKTNV-1" source="xTPkpAr_v5P52CvgE6M6-7" target="xTPkpAr_v5P52CvgE6M6-27" edge="1">
          <mxGeometry relative="1" as="geometry" />
        </mxCell>
        <mxCell id="xTPkpAr_v5P52CvgE6M6-7" value="Decode for GUI" style="rounded=1;whiteSpace=wrap;html=1;fontSize=12;glass=0;strokeWidth=1;shadow=0;" parent="WIyWlLk6GJQsqaUBKTNV-1" vertex="1">
          <mxGeometry x="680" y="390" width="120" height="40" as="geometry" />
        </mxCell>
        <mxCell id="IwVZI1Zl-L6Qcaz8j-s4-21" style="edgeStyle=orthogonalEdgeStyle;rounded=0;orthogonalLoop=1;jettySize=auto;html=1;exitX=0.5;exitY=1;exitDx=0;exitDy=0;entryX=1;entryY=0.5;entryDx=0;entryDy=0;" parent="WIyWlLk6GJQsqaUBKTNV-1" source="xTPkpAr_v5P52CvgE6M6-10" target="xTPkpAr_v5P52CvgE6M6-5" edge="1">
          <mxGeometry relative="1" as="geometry">
            <Array as="points">
              <mxPoint x="390" y="403" />
              <mxPoint x="460" y="403" />
              <mxPoint x="460" y="303" />
            </Array>
          </mxGeometry>
        </mxCell>
        <mxCell id="xTPkpAr_v5P52CvgE6M6-10" value="Display" style="rounded=1;whiteSpace=wrap;html=1;fontSize=12;glass=0;strokeWidth=1;shadow=0;" parent="WIyWlLk6GJQsqaUBKTNV-1" vertex="1">
          <mxGeometry x="330" y="342.5" width="120" height="40" as="geometry" />
        </mxCell>
        <mxCell id="xTPkpAr_v5P52CvgE6M6-15" value="" style="edgeStyle=orthogonalEdgeStyle;rounded=0;orthogonalLoop=1;jettySize=auto;html=1;fillColor=#a20025;strokeColor=#6F0000;" parent="WIyWlLk6GJQsqaUBKTNV-1" source="xTPkpAr_v5P52CvgE6M6-12" target="xTPkpAr_v5P52CvgE6M6-14" edge="1">
          <mxGeometry relative="1" as="geometry" />
        </mxCell>
        <mxCell id="IwVZI1Zl-L6Qcaz8j-s4-17" value="" style="edgeStyle=orthogonalEdgeStyle;rounded=0;orthogonalLoop=1;jettySize=auto;html=1;" parent="WIyWlLk6GJQsqaUBKTNV-1" source="xTPkpAr_v5P52CvgE6M6-12" target="xTPkpAr_v5P52CvgE6M6-20" edge="1">
          <mxGeometry relative="1" as="geometry" />
        </mxCell>
        <mxCell id="xTPkpAr_v5P52CvgE6M6-12" value="Start system" style="rounded=1;whiteSpace=wrap;html=1;fontSize=12;glass=0;strokeWidth=1;shadow=0;" parent="WIyWlLk6GJQsqaUBKTNV-1" vertex="1">
          <mxGeometry x="160" y="122.5" width="120" height="40" as="geometry" />
        </mxCell>
        <mxCell id="xTPkpAr_v5P52CvgE6M6-17" value="" style="edgeStyle=orthogonalEdgeStyle;rounded=0;orthogonalLoop=1;jettySize=auto;html=1;fillColor=#a20025;strokeColor=#6F0000;" parent="WIyWlLk6GJQsqaUBKTNV-1" source="xTPkpAr_v5P52CvgE6M6-14" target="xTPkpAr_v5P52CvgE6M6-16" edge="1">
          <mxGeometry relative="1" as="geometry" />
        </mxCell>
        <mxCell id="IwVZI1Zl-L6Qcaz8j-s4-19" value="" style="edgeStyle=orthogonalEdgeStyle;rounded=0;orthogonalLoop=1;jettySize=auto;html=1;" parent="WIyWlLk6GJQsqaUBKTNV-1" source="xTPkpAr_v5P52CvgE6M6-14" target="xTPkpAr_v5P52CvgE6M6-5" edge="1">
          <mxGeometry relative="1" as="geometry" />
        </mxCell>
        <mxCell id="xTPkpAr_v5P52CvgE6M6-14" value="Initialize IO Expander(s) (includes I2C initialization)&amp;nbsp;" style="rounded=1;whiteSpace=wrap;html=1;fontSize=12;glass=0;strokeWidth=1;shadow=0;" parent="WIyWlLk6GJQsqaUBKTNV-1" vertex="1">
          <mxGeometry x="320" y="117.5" width="140" height="50" as="geometry" />
        </mxCell>
        <mxCell id="xTPkpAr_v5P52CvgE6M6-18" value="" style="edgeStyle=orthogonalEdgeStyle;rounded=0;orthogonalLoop=1;jettySize=auto;html=1;" parent="WIyWlLk6GJQsqaUBKTNV-1" source="xTPkpAr_v5P52CvgE6M6-16" edge="1">
          <mxGeometry relative="1" as="geometry">
            <mxPoint x="565" y="202.5" as="targetPoint" />
            <Array as="points">
              <mxPoint x="565" y="192.5" />
            </Array>
          </mxGeometry>
        </mxCell>
        <mxCell id="xTPkpAr_v5P52CvgE6M6-16" value="Initialize ADC (includes SPI initialization)&amp;nbsp;" style="rounded=1;whiteSpace=wrap;html=1;fontSize=12;glass=0;strokeWidth=1;shadow=0;" parent="WIyWlLk6GJQsqaUBKTNV-1" vertex="1">
          <mxGeometry x="490" y="115" width="150" height="55" as="geometry" />
        </mxCell>
        <mxCell id="xTPkpAr_v5P52CvgE6M6-21" style="edgeStyle=orthogonalEdgeStyle;rounded=0;orthogonalLoop=1;jettySize=auto;html=1;exitX=0;exitY=0.5;exitDx=0;exitDy=0;entryX=1;entryY=0.5;entryDx=0;entryDy=0;fillColor=#a20025;strokeColor=#6F0000;" parent="WIyWlLk6GJQsqaUBKTNV-1" source="xTPkpAr_v5P52CvgE6M6-19" target="xTPkpAr_v5P52CvgE6M6-20" edge="1">
          <mxGeometry relative="1" as="geometry" />
        </mxCell>
        <mxCell id="xTPkpAr_v5P52CvgE6M6-19" value="Send data" style="rounded=1;whiteSpace=wrap;html=1;fontSize=12;glass=0;strokeWidth=1;shadow=0;" parent="WIyWlLk6GJQsqaUBKTNV-1" vertex="1">
          <mxGeometry x="505" y="202.5" width="120" height="40" as="geometry" />
        </mxCell>
        <mxCell id="xTPkpAr_v5P52CvgE6M6-22" value="" style="edgeStyle=orthogonalEdgeStyle;rounded=0;orthogonalLoop=1;jettySize=auto;html=1;" parent="WIyWlLk6GJQsqaUBKTNV-1" source="xTPkpAr_v5P52CvgE6M6-20" target="WIyWlLk6GJQsqaUBKTNV-7" edge="1">
          <mxGeometry relative="1" as="geometry" />
        </mxCell>
        <mxCell id="xTPkpAr_v5P52CvgE6M6-20" value="Receive data" style="rounded=1;whiteSpace=wrap;html=1;fontSize=12;glass=0;strokeWidth=1;shadow=0;" parent="WIyWlLk6GJQsqaUBKTNV-1" vertex="1">
          <mxGeometry x="160" y="202.5" width="120" height="40" as="geometry" />
        </mxCell>
        <mxCell id="IwVZI1Zl-L6Qcaz8j-s4-6" style="edgeStyle=orthogonalEdgeStyle;rounded=0;orthogonalLoop=1;jettySize=auto;html=1;exitX=0.5;exitY=1;exitDx=0;exitDy=0;entryX=0.5;entryY=0;entryDx=0;entryDy=0;" parent="WIyWlLk6GJQsqaUBKTNV-1" source="xTPkpAr_v5P52CvgE6M6-23" target="xTPkpAr_v5P52CvgE6M6-7" edge="1">
          <mxGeometry relative="1" as="geometry" />
        </mxCell>
        <mxCell id="xTPkpAr_v5P52CvgE6M6-23" value="GUI button &lt;br&gt;is pressed" style="rhombus;whiteSpace=wrap;html=1;rounded=1;glass=0;strokeWidth=1;shadow=0;" parent="WIyWlLk6GJQsqaUBKTNV-1" vertex="1">
          <mxGeometry x="680" y="252.5" width="120" height="120" as="geometry" />
        </mxCell>
        <mxCell id="IwVZI1Zl-L6Qcaz8j-s4-7" style="edgeStyle=orthogonalEdgeStyle;rounded=0;orthogonalLoop=1;jettySize=auto;html=1;exitX=0;exitY=0.5;exitDx=0;exitDy=0;entryX=0;entryY=0.5;entryDx=0;entryDy=0;" parent="WIyWlLk6GJQsqaUBKTNV-1" source="xTPkpAr_v5P52CvgE6M6-27" target="IwVZI1Zl-L6Qcaz8j-s4-3" edge="1">
          <mxGeometry relative="1" as="geometry" />
        </mxCell>
        <mxCell id="xTPkpAr_v5P52CvgE6M6-27" value="Display value" style="whiteSpace=wrap;html=1;rounded=1;glass=0;strokeWidth=1;shadow=0;" parent="WIyWlLk6GJQsqaUBKTNV-1" vertex="1">
          <mxGeometry x="680" y="452.5" width="120" height="60" as="geometry" />
        </mxCell>
        <mxCell id="xTPkpAr_v5P52CvgE6M6-36" value="Arduino" style="text;html=1;strokeColor=none;fillColor=none;align=center;verticalAlign=middle;whiteSpace=wrap;rounded=0;" parent="WIyWlLk6GJQsqaUBKTNV-1" vertex="1">
          <mxGeometry x="190" y="80" width="60" height="30" as="geometry" />
        </mxCell>
        <mxCell id="xTPkpAr_v5P52CvgE6M6-42" value="Computer" style="text;html=1;align=center;verticalAlign=middle;whiteSpace=wrap;rounded=0;" parent="WIyWlLk6GJQsqaUBKTNV-1" vertex="1">
          <mxGeometry x="705" y="80" width="60" height="30" as="geometry" />
        </mxCell>
        <mxCell id="IwVZI1Zl-L6Qcaz8j-s4-13" style="edgeStyle=orthogonalEdgeStyle;rounded=0;orthogonalLoop=1;jettySize=auto;html=1;exitX=0;exitY=0.5;exitDx=0;exitDy=0;entryX=0;entryY=0.5;entryDx=0;entryDy=0;" parent="WIyWlLk6GJQsqaUBKTNV-1" source="IwVZI1Zl-L6Qcaz8j-s4-1" target="xTPkpAr_v5P52CvgE6M6-20" edge="1">
          <mxGeometry relative="1" as="geometry" />
        </mxCell>
        <mxCell id="IwVZI1Zl-L6Qcaz8j-s4-1" value="Send to computer" style="rounded=1;whiteSpace=wrap;html=1;fontSize=12;glass=0;strokeWidth=1;shadow=0;" parent="WIyWlLk6GJQsqaUBKTNV-1" vertex="1">
          <mxGeometry x="160" y="462.5" width="120" height="40" as="geometry" />
        </mxCell>
        <mxCell id="IwVZI1Zl-L6Qcaz8j-s4-4" value="" style="edgeStyle=orthogonalEdgeStyle;rounded=0;orthogonalLoop=1;jettySize=auto;html=1;" parent="WIyWlLk6GJQsqaUBKTNV-1" source="IwVZI1Zl-L6Qcaz8j-s4-3" target="xTPkpAr_v5P52CvgE6M6-23" edge="1">
          <mxGeometry relative="1" as="geometry" />
        </mxCell>
        <mxCell id="IwVZI1Zl-L6Qcaz8j-s4-3" value="Receive data" style="rounded=1;whiteSpace=wrap;html=1;fontSize=12;glass=0;strokeWidth=1;shadow=0;" parent="WIyWlLk6GJQsqaUBKTNV-1" vertex="1">
          <mxGeometry x="680" y="190" width="120" height="40" as="geometry" />
        </mxCell>
        <mxCell id="IwVZI1Zl-L6Qcaz8j-s4-9" value="Yes" style="text;html=1;strokeColor=none;fillColor=none;align=center;verticalAlign=middle;whiteSpace=wrap;rounded=0;" parent="WIyWlLk6GJQsqaUBKTNV-1" vertex="1">
          <mxGeometry x="690" y="360" width="60" height="30" as="geometry" />
        </mxCell>
        <mxCell id="IwVZI1Zl-L6Qcaz8j-s4-11" style="edgeStyle=orthogonalEdgeStyle;rounded=0;orthogonalLoop=1;jettySize=auto;html=1;exitX=1;exitY=0.5;exitDx=0;exitDy=0;" parent="WIyWlLk6GJQsqaUBKTNV-1" source="xTPkpAr_v5P52CvgE6M6-23" edge="1">
          <mxGeometry relative="1" as="geometry">
            <mxPoint x="740" y="240" as="targetPoint" />
            <Array as="points">
              <mxPoint x="810" y="313" />
              <mxPoint x="810" y="240" />
              <mxPoint x="740" y="240" />
            </Array>
          </mxGeometry>
        </mxCell>
        <mxCell id="IwVZI1Zl-L6Qcaz8j-s4-12" value="No" style="text;html=1;strokeColor=none;fillColor=none;align=center;verticalAlign=middle;whiteSpace=wrap;rounded=0;" parent="WIyWlLk6GJQsqaUBKTNV-1" vertex="1">
          <mxGeometry x="760" y="242.5" width="60" height="30" as="geometry" />
        </mxCell>
        <mxCell id="IwVZI1Zl-L6Qcaz8j-s4-16" value="Red lines mark data flow (NOT logic flow)" style="text;html=1;strokeColor=#6F0000;fillColor=#a20025;align=center;verticalAlign=middle;whiteSpace=wrap;rounded=0;fontColor=#ffffff;" parent="WIyWlLk6GJQsqaUBKTNV-1" vertex="1">
          <mxGeometry x="487.5" y="330" width="145" height="30" as="geometry" />
        </mxCell>
        <mxCell id="IwVZI1Zl-L6Qcaz8j-s4-18" style="edgeStyle=orthogonalEdgeStyle;rounded=0;orthogonalLoop=1;jettySize=auto;html=1;exitX=0.5;exitY=1;exitDx=0;exitDy=0;entryX=1;entryY=0.5;entryDx=0;entryDy=0;" parent="WIyWlLk6GJQsqaUBKTNV-1" source="xTPkpAr_v5P52CvgE6M6-19" target="xTPkpAr_v5P52CvgE6M6-19" edge="1">
          <mxGeometry relative="1" as="geometry">
            <Array as="points">
              <mxPoint x="565" y="263" />
              <mxPoint x="630" y="263" />
              <mxPoint x="630" y="223" />
            </Array>
          </mxGeometry>
        </mxCell>
        <mxCell id="IwVZI1Zl-L6Qcaz8j-s4-23" value="" style="edgeStyle=orthogonalEdgeStyle;rounded=0;orthogonalLoop=1;jettySize=auto;html=1;exitX=1;exitY=0.5;exitDx=0;exitDy=0;fillColor=#d80073;strokeColor=#A50040;entryX=0.5;entryY=0;entryDx=0;entryDy=0;" parent="WIyWlLk6GJQsqaUBKTNV-1" source="IwVZI1Zl-L6Qcaz8j-s4-1" target="IwVZI1Zl-L6Qcaz8j-s4-3" edge="1">
          <mxGeometry relative="1" as="geometry">
            <mxPoint x="740" y="163" as="targetPoint" />
            <Array as="points">
              <mxPoint x="650" y="483" />
              <mxPoint x="650" y="170" />
              <mxPoint x="740" y="170" />
            </Array>
            <mxPoint x="280" y="483" as="sourcePoint" />
          </mxGeometry>
        </mxCell>
        <mxCell id="IwVZI1Zl-L6Qcaz8j-s4-26" style="edgeStyle=orthogonalEdgeStyle;rounded=0;orthogonalLoop=1;jettySize=auto;html=1;exitX=0.5;exitY=1;exitDx=0;exitDy=0;entryX=0.75;entryY=0;entryDx=0;entryDy=0;" parent="WIyWlLk6GJQsqaUBKTNV-1" source="IwVZI1Zl-L6Qcaz8j-s4-22" target="IwVZI1Zl-L6Qcaz8j-s4-3" edge="1">
          <mxGeometry relative="1" as="geometry">
            <Array as="points">
              <mxPoint x="732" y="160" />
              <mxPoint x="770" y="160" />
            </Array>
          </mxGeometry>
        </mxCell>
        <mxCell id="IwVZI1Zl-L6Qcaz8j-s4-22" value="Start system" style="rounded=1;whiteSpace=wrap;html=1;fontSize=12;glass=0;strokeWidth=1;shadow=0;" parent="WIyWlLk6GJQsqaUBKTNV-1" vertex="1">
          <mxGeometry x="672.5" y="110" width="120" height="40" as="geometry" />
        </mxCell>
      </root>
    </mxGraphModel>
  </diagram>
</mxfile>
